<?xml version="1.0" encoding="UTF-8" standalone="no"?>
<!-- Created with Inkscape (http://www.inkscape.org/) -->

<svg
   xmlns:dc="http://purl.org/dc/elements/1.1/"
   xmlns:cc="http://creativecommons.org/ns#"
   xmlns:rdf="http://www.w3.org/1999/02/22-rdf-syntax-ns#"
   xmlns:svg="http://www.w3.org/2000/svg"
   xmlns="http://www.w3.org/2000/svg"
   xmlns:sodipodi="http://sodipodi.sourceforge.net/DTD/sodipodi-0.dtd"
   xmlns:inkscape="http://www.inkscape.org/namespaces/inkscape"
   width="25"
   height="25"
   viewBox="0 0 6.6145832 6.6145835"
   version="1.1"
   id="svg8"
   inkscape:version="0.92.5 (2060ec1f9f, 2020-04-08)"
   sodipodi:docname="fone.svg">
  <defs
     id="defs2" />
  <sodipodi:namedview
     id="base"
     pagecolor="#ffffff"
     bordercolor="#666666"
     borderopacity="1.0"
     inkscape:pageopacity="0.0"
     inkscape:pageshadow="2"
     inkscape:zoom="11.615625"
     inkscape:cx="27.068669"
     inkscape:cy="14.834606"
     inkscape:document-units="mm"
     inkscape:current-layer="layer1"
     showgrid="false"
     units="px"
     inkscape:window-width="1366"
     inkscape:window-height="699"
     inkscape:window-x="0"
     inkscape:window-y="0"
     inkscape:window-maximized="1" />
  <metadata
     id="metadata5">
    <rdf:RDF>
      <cc:Work
         rdf:about="">
        <dc:format>image/svg+xml</dc:format>
        <dc:type
           rdf:resource="http://purl.org/dc/dcmitype/StillImage" />
        <dc:title></dc:title>
      </cc:Work>
    </rdf:RDF>
  </metadata>
  <g
     inkscape:label="Layer 1"
     inkscape:groupmode="layer"
     id="layer1"
     transform="translate(0,-290.3854)">
    <path
       style="fill:#000000;stroke-width:0.03129139"
       d="m 4.1285445,296.78548 c -0.9259087,-0.19843 -2.046951,-1.04359 -2.8082577,-2.11713 -0.53129998,-0.74923 -0.89461544,-1.6676 -0.89461544,-2.26138 0,-0.42274 0.0482821,-0.53582 0.39935945,-0.93539 0.39204939,-0.44619 0.53439249,-0.52929 0.78753249,-0.45967 0.1177786,0.0324 0.1954751,0.10148 0.5632545,0.50124 0.4535051,0.49286 0.5399833,0.6278 0.5399833,0.84258 0,0.19058 -0.063744,0.30976 -0.3198886,0.59803 l -0.2245238,0.25269 0.040031,0.10699 c 0.151848,0.40578 0.903021,1.24687 1.3326718,1.49221 l 0.099609,0.0569 0.2317352,-0.24963 c 0.1274543,-0.13728 0.2796126,-0.27175 0.3381293,-0.29882 0.170655,-0.0788 0.3446931,-0.0632 0.4965621,0.0449 0.1844204,0.13128 0.8529502,0.89735 0.90621,1.03845 0.058143,0.15401 0.055531,0.32807 -0.00708,0.47563 -0.080477,0.18951 -0.5874502,0.74897 -0.7639387,0.843 -0.1915705,0.10218 -0.4483514,0.12693 -0.7167305,0.0694 z m 0.5795762,-0.39743 c 0.041108,-0.0238 0.1985474,-0.18331 0.3498598,-0.35451 0.2166381,-0.24511 0.2751125,-0.33119 0.2751125,-0.40495 0,-0.13796 -0.7802199,-1.0016 -0.9048745,-1.0016 -0.066505,0 -0.1429621,0.0634 -0.3570981,0.29577 -0.3461778,0.37578 -0.379512,0.38539 -0.6861566,0.19803 -0.5501983,-0.33617 -1.2131741,-1.07912 -1.4754041,-1.65335 -0.1344256,-0.29437 -0.1266018,-0.32167 0.1965311,-0.68572 0.3881163,-0.43728 0.3919465,-0.40524 -0.1160376,-0.97047 -0.513927,-0.57184 -0.4970175,-0.56916 -0.8833084,-0.13897 -0.15039359,0.16749 -0.29154829,0.3522 -0.31367695,0.41046 -0.10554365,0.27789 -0.0173211,0.78402 0.24056585,1.38013 0.4754469,1.099 1.3609623,2.08931 2.3635436,2.64324 0.5951766,0.32886 1.0578747,0.42837 1.3109434,0.28194 z m 0.00469,-2.82533 c -0.01802,-0.024 -0.061161,-0.14626 -0.095857,-0.2716 -0.1575794,-0.56921 -0.5123043,-0.95857 -1.0326749,-1.13352 -0.2642712,-0.0888 -0.3401574,-0.17954 -0.2614628,-0.31248 0.05749,-0.0971 0.1658937,-0.10675 0.3828318,-0.0339 0.482562,0.16207 0.8849302,0.54392 1.1079925,1.05146 0.145315,0.33065 0.1983891,0.60689 0.1332856,0.69371 -0.046186,0.0616 -0.1897446,0.0655 -0.2341149,0.007 z m 1.006968,-0.055 c -0.03272,-0.0363 -0.059487,-0.0947 -0.059487,-0.12992 0,-0.10512 -0.1490598,-0.59615 -0.2448064,-0.8065 -0.3384243,-0.74351 -1.0010753,-1.32322 -1.747904,-1.52916 -0.2500082,-0.0689 -0.327162,-0.12502 -0.327162,-0.23785 0,-0.0836 0.08205,-0.16067 0.17124,-0.16067 0.1292261,0 0.4540268,0.1016 0.705514,0.22076 0.8268928,0.39168 1.506572,1.26724 1.7214236,2.21753 0.062761,0.27759 0.061592,0.36999 -0.00552,0.43723 -0.072282,0.0725 -0.1409147,0.0687 -0.213287,-0.0106 z"
       id="path23"
       inkscape:connector-curvature="0" />
  </g>
</svg>
