<?xml version="1.0" encoding="UTF-8" standalone="no"?>
<!-- Created with Inkscape (http://www.inkscape.org/) -->

<svg
   xmlns:dc="http://purl.org/dc/elements/1.1/"
   xmlns:cc="http://creativecommons.org/ns#"
   xmlns:rdf="http://www.w3.org/1999/02/22-rdf-syntax-ns#"
   xmlns:svg="http://www.w3.org/2000/svg"
   xmlns="http://www.w3.org/2000/svg"
   xmlns:sodipodi="http://sodipodi.sourceforge.net/DTD/sodipodi-0.dtd"
   xmlns:inkscape="http://www.inkscape.org/namespaces/inkscape"
   width="50"
   height="50"
   viewBox="0 0 13.229166 13.229167"
   version="1.1"
   id="svg8"
   inkscape:version="0.92.5 (2060ec1f9f, 2020-04-08)"
   sodipodi:docname="vk.svg">
  <defs
     id="defs2" />
  <sodipodi:namedview
     id="base"
     pagecolor="#ffffff"
     bordercolor="#666666"
     borderopacity="1.0"
     inkscape:pageopacity="0.0"
     inkscape:pageshadow="2"
     inkscape:zoom="6.2468589"
     inkscape:cx="30.446795"
     inkscape:cy="21.239923"
     inkscape:document-units="mm"
     inkscape:current-layer="layer1"
     showgrid="false"
     units="px"
     inkscape:window-width="1366"
     inkscape:window-height="699"
     inkscape:window-x="0"
     inkscape:window-y="0"
     inkscape:window-maximized="1" />
  <metadata
     id="metadata5">
    <rdf:RDF>
      <cc:Work
         rdf:about="">
        <dc:format>image/svg+xml</dc:format>
        <dc:type
           rdf:resource="http://purl.org/dc/dcmitype/StillImage" />
        <dc:title />
      </cc:Work>
    </rdf:RDF>
  </metadata>
  <g
     inkscape:label="Layer 1"
     inkscape:groupmode="layer"
     id="layer1"
     transform="translate(0,-283.77082)">
    <path
       style="fill:#28376f;fill-opacity:0;stroke-width:0.26458335"
       d="m 150.62735,163.78877 c -5.25188,-0.43231 -7.89243,-1.32762 -10.11495,-3.42959 -1.6433,-1.55416 -2.61143,-3.49355 -3.26363,-6.53779 -0.6461,-3.01578 -0.65409,-26.62638 -0.0101,-29.89879 1.05414,-5.3567 3.50453,-8.02639 8.58977,-9.35852 3.18234,-0.83364 15.40808,-1.2271 25.83586,-0.83146 10.6261,0.40316 13.01144,0.96179 15.73099,3.68409 2.30736,2.30968 3.09674,4.751 3.53429,10.93042 0.41542,5.86709 0.14951,22.1342 -0.41304,25.26771 -1.03831,5.78352 -4.02706,8.69503 -10.07411,9.81377 -1.9562,0.36191 -4.57733,0.45414 -14.68438,0.51673 -6.76672,0.0419 -13.57553,-0.0286 -15.13069,-0.15657 z m 15.65986,-17.48594 v -3.74013 l 1.19939,0.1644 c 2.85282,0.39102 5.97501,2.8378 7.44452,5.83407 l 0.72674,1.48179 h 3.13771 c 3.62244,0 3.46808,0.23038 1.95007,-2.91041 -1.04293,-2.15786 -4.03175,-5.34664 -6.23051,-6.64737 l -1.61399,-0.9548 0.99251,-0.68 c 1.39645,-0.95673 2.74966,-2.23308 3.85829,-3.6391 0.97257,-1.23347 2.37427,-4.03988 2.66852,-5.3428 l 0.16433,-0.7276 h -2.85658 -2.85659 l -0.77359,1.77575 c -1.28389,2.94706 -5.22467,6.42633 -7.27877,6.42633 -0.51013,0 -0.53205,-0.16898 -0.53205,-4.10104 v -4.10104 h -2.90624 -2.90623 l -0.0703,7.27044 -0.0703,7.27044 -1.34022,-0.62106 c -3.78311,-1.75308 -6.49268,-6.39976 -6.91343,-11.85591 l -0.15915,-2.06391 h -3.0035 -3.00349 v 1.15597 c 0,1.87673 0.73663,5.55145 1.5713,7.83851 2.64901,7.25845 9.14733,11.65674 17.54485,11.87494 l 1.25677,0.0327 z"
       id="path21"
       inkscape:connector-curvature="0" />
    <path
       style="fill:#ffffff;stroke-width:0.05717437;stroke:none;stroke-opacity:0.88557214;fill-opacity:1"
       d="m 10.41608,295.60082 c 1.34597,-0.2347 2.011213,-0.84551 2.242323,-2.05884 0.125214,-0.65737 0.184401,-4.07006 0.09193,-5.30093 -0.09739,-1.29638 -0.273094,-1.80855 -0.78667,-2.2931 -0.605327,-0.57111 -1.136265,-0.68831 -3.5014505,-0.77288 -2.3210441,-0.083 -5.0422832,-4.1e-4 -5.7506172,0.17443 -1.131887,0.27946 -1.677301,0.83954 -1.91193497,1.96333 -0.143336,0.68651 -0.141557,5.6398 0.0023,6.27248 0.145169,0.63866 0.36065797,1.04553 0.72642797,1.37157 0.765179,0.68209 1.470773,0.77657 5.6192441,0.75234 2.249653,-0.0132 2.8330713,-0.0326 3.2684886,-0.10846 z"
       id="path825"
       inkscape:connector-curvature="0"
       sodipodi:nodetypes="ccccscsccccc" />
    <path
       sodipodi:nodetypes="cssccccccccccssccccccccccscsccccccc"
       inkscape:connector-curvature="0"
       id="path827-3"
       d="m 6.3410257,292.48816 c -1.538799,-0.2071 -2.728396,-1.0991 -3.2449631,-2.43319 -0.185783,-0.47981 -0.349747,-1.25074 -0.349747,-1.64445 v -0.24251 h 0.668527 0.6685251 l 0.03543,0.43298 c 0.09365,1.14465 0.696755,2.11949 1.538808,2.48727 l 0.298309,0.13029 0.01565,-1.52527 0.01565,-1.52527 h 0.646878 0.646876 v 0.86036 c 0,0.82491 0.0049,0.86035 0.118426,0.86035 0.457207,0 1.334357,-0.72992 1.620129,-1.34818 l 0.172189,-0.37253 h 0.635826 0.6358263 l -0.03658,0.15264 c -0.0655,0.27335 -0.377489,0.8621 -0.5939673,1.12086 -0.246762,0.29498 -0.547963,0.56274 -0.858789,0.76348 l -0.220915,0.14263 0.359246,0.20032 c 0.489406,0.27289 1.1546663,0.94186 1.3868053,1.39456 0.337882,0.6589 0.37224,0.61058 -0.434053,0.61058 H 9.3667107 l -0.16176,-0.31087 c -0.3270845,-0.62859 -1.022033,-1.14191 -1.657021,-1.22393 l -0.266964,-0.0345 v 0.78465 0.78464 l -0.279735,-0.007 c -0.153856,-0.004 -0.450953,-0.03 -0.660216,-0.0581 z"
       style="fill:#28376f;fill-opacity:0.99607843;stroke:none;stroke-width:0.05717437;stroke-opacity:0.99607843" />
  </g>
</svg>
